<?xml version="1.0" encoding="UTF-8"?>
<svg version="1.1" xmlns="http://www.w3.org/2000/svg" width="500" height="500">
<path d="M0 0 C2.68535517 2.3198485 3.50519779 4.19422947 4.5 7.5625 C6.70840794 13.44013047 10.51633132 16.69593943 15.24609375 20.67578125 C19.32765844 24.12050606 22.97710539 27.53351866 25.75 32.125 C26.15734375 32.78757813 26.5646875 33.45015625 26.984375 34.1328125 C29.86272809 39.42455396 29.63831053 45.14882016 29 51 C27.52636896 55.4385767 25.99193759 59.83206537 21.828125 62.2734375 C21.22484375 62.51320313 20.6215625 62.75296875 20 63 C20 63.66 20 64.32 20 65 C18.41925436 65.81752303 16.83528777 66.62881997 15.25 67.4375 C14.36828125 67.88996094 13.4865625 68.34242188 12.578125 68.80859375 C4.62687892 72.48303322 -4.48972003 71.81948047 -12.6484375 69.03515625 C-19.81061051 65.88237245 -24.66446106 61.07191518 -28 54 C-31.13248835 43.97603728 -28.32800697 34.22548854 -24 25 C-21.34235616 21.08138898 -18.72397124 19.001065 -14.625 16.6875 C-9.3946319 13.48651472 -6.19185636 10.18948076 -3 5 C-2.38125 4.01 -1.7625 3.02 -1.125 2 C-0.75375 1.34 -0.3825 0.68 0 0 Z " fill="#FB9030" transform="translate(324,207)"/>
<path d="M0 0 C5.77772463 4.62640473 8.57787626 9.59691002 10.88671875 16.5234375 C11.58925306 26.66987565 11.79484174 36.09938792 5.34375 44.54296875 C-1.04401238 51.48618873 -8.46289263 54.38383522 -17.73828125 54.8359375 C-25.89418867 54.72654381 -33.64664197 51.93753422 -39.61328125 46.30078125 C-46.73265821 37.86506115 -47.99953447 29.2920211 -47.11328125 18.5234375 C-44.99576823 9.75715303 -41.81422404 4.07241211 -34.11328125 -0.7265625 C-24.05696825 -6.67450373 -9.68681372 -6.76823584 0 0 Z M-29.92578125 13.2109375 C-33.16455781 19.51802869 -33.84801626 25.68579584 -32.11328125 32.5234375 C-29.66869833 37.41260334 -27.30304688 39.76087559 -22.11328125 41.5234375 C-17.46799755 42.2100579 -13.47191953 42.03763316 -9.23828125 39.8984375 C-5.59136218 37.12677901 -4.42333659 35.915976 -3.11328125 31.5234375 C-2.39207444 23.54953122 -2.33074609 17.09400082 -7.61328125 10.7109375 C-13.90746455 5.72804239 -24.48586765 8.14619036 -29.92578125 13.2109375 Z " fill="#8961BF" transform="translate(142.11328125,216.4765625)"/>
<path d="M0 0 C5.04385538 5.46417666 6.22805657 9.85076643 6.16796875 17.109375 C6 19 6 19 5 20 C5.66 20.33 6.32 20.66 7 21 C6.75776963 25.96572258 5.22167387 28.83483872 1.9296875 32.38671875 C-3.35883206 36.80809239 -9.94189848 38.67466362 -16.76953125 38.32421875 C-22.92560193 37.42937835 -28.65018464 35.59837624 -33 31 C-36.99386573 24.31196722 -39.35960868 17.7274854 -37.50390625 9.91015625 C-35.40049161 3.7187493 -32.52303316 -0.64503775 -26.625 -3.8125 C-17.11722776 -6.92711504 -7.93811083 -6.61509236 0 0 Z M-21 7 C-21.33 7.99 -21.66 8.98 -22 10 C-22.99 10.495 -22.99 10.495 -24 11 C-18.72 11 -13.44 11 -8 11 C-8.33 10.01 -8.66 9.02 -9 8 C-11.52475462 6.73762269 -13.31200466 6.90143596 -16.125 6.9375 C-17.03507812 6.94652344 -17.94515625 6.95554688 -18.8828125 6.96484375 C-19.58148438 6.97644531 -20.28015625 6.98804688 -21 7 Z M-24 22 C-21.1007869 24.8992131 -19.01010684 26.30809006 -14.9375 26.4375 C-11.13265926 26.01473992 -9.55884836 25.77208572 -7 23 C-7 22.34 -7 21.68 -7 21 C-10.06698637 19.97767121 -12.28664878 19.8340951 -15.5 19.8125 C-16.4590625 19.79832031 -17.418125 19.78414062 -18.40625 19.76953125 C-21.23746139 19.81244889 -21.23746139 19.81244889 -24 22 Z " fill="#8961BF" transform="translate(281,233)"/>
<path d="M0 0 C4.29 0 8.58 0 13 0 C13.93446046 5.60676274 13.98815787 7.08808055 12 12 C12.66 12 13.32 12 14 12 C14.0825 11.278125 14.165 10.55625 14.25 9.8125 C15.30822755 5.84414667 17.27414233 3.09342418 20.76953125 0.87890625 C25.30717094 -0.90913041 30.21936385 -0.51266876 35 0 C39.93461319 2.29107041 42.35281968 5.29390165 45 10 C46.13825561 13.42360856 46.12914337 16.67094692 46.1328125 20.26171875 C46.13474609 22.06286133 46.13474609 22.06286133 46.13671875 23.90039062 C46.13285156 25.15013672 46.12898438 26.39988281 46.125 27.6875 C46.13080078 29.57952148 46.13080078 29.57952148 46.13671875 31.50976562 C46.13542969 32.70666016 46.13414062 33.90355469 46.1328125 35.13671875 C46.13168457 36.23717529 46.13055664 37.33763184 46.12939453 38.47143555 C46 41 46 41 45 42 C43.00200428 42.09873816 41.00042842 42.12971799 39 42.125 C37.906875 42.12757813 36.81375 42.13015625 35.6875 42.1328125 C33 42 33 42 32 41 C31.85481704 39.41402581 31.77286645 37.82215453 31.71875 36.23046875 C31.66267578 34.77350586 31.66267578 34.77350586 31.60546875 33.28710938 C31.55326172 31.75280273 31.55326172 31.75280273 31.5 30.1875 C31.43093759 28.18085323 31.35816272 26.17432997 31.28125 24.16796875 C31.25095703 23.27360107 31.22066406 22.3792334 31.18945312 21.45776367 C31.01282223 19.16634206 30.72353358 17.17937267 30 15 C27.35863855 12.86659267 25.86644947 13.00702898 22.4375 13.1875 C18.503305 14.11412708 18.503305 14.11412708 16 17 C15.04723427 19.85829718 14.82396618 21.8724894 14.71875 24.8515625 C14.68136719 25.78484375 14.64398438 26.718125 14.60546875 27.6796875 C14.53487685 29.65103168 14.46456655 31.62238597 14.39453125 33.59375 C14.35714844 34.52445312 14.31976563 35.45515625 14.28125 36.4140625 C14.23581055 37.69724365 14.23581055 37.69724365 14.18945312 39.00634766 C14 41 14 41 13 42 C10.83519203 42.0989294 8.66706215 42.129711 6.5 42.125 C5.3140625 42.12757813 4.128125 42.13015625 2.90625 42.1328125 C0 42 0 42 -1 41 C-1.10109386 38.13904376 -1.13969428 35.30273943 -1.1328125 32.44140625 C-1.13376923 31.58191879 -1.13472595 30.72243134 -1.13571167 29.8368988 C-1.13639357 28.01520718 -1.13453861 26.19351315 -1.13037109 24.37182617 C-1.12502946 21.5779068 -1.13031239 18.78414867 -1.13671875 15.99023438 C-1.13605784 14.22395798 -1.13477642 12.45768168 -1.1328125 10.69140625 C-1.13483673 9.85178848 -1.13686096 9.01217072 -1.13894653 8.14710999 C-1.11495472 2.22990945 -1.11495472 2.22990945 0 0 Z " fill="#8A61C1" transform="translate(359,228)"/>
<path d="M0 0 C4.29 0 8.58 0 13 0 C13 3.63 13 7.26 13 11 C14.0828125 9.1128125 14.0828125 9.1128125 15.1875 7.1875 C17.2585479 3.57795938 19.21187428 1.77877208 23 0 C28.49675939 -0.82118478 33.43780554 -0.72530457 38.5 1.625 C43.29515639 6.18039857 45.83771926 10.34194716 46.12939453 16.91674805 C46.13108643 18.57250854 46.13108643 18.57250854 46.1328125 20.26171875 C46.13474609 22.06286133 46.13474609 22.06286133 46.13671875 23.90039062 C46.13285156 25.15013672 46.12898438 26.39988281 46.125 27.6875 C46.13080078 29.57952148 46.13080078 29.57952148 46.13671875 31.50976562 C46.13542969 32.70666016 46.13414062 33.90355469 46.1328125 35.13671875 C46.13168457 36.23717529 46.13055664 37.33763184 46.12939453 38.47143555 C46 41 46 41 45 42 C43.00200428 42.09873816 41.00042842 42.12971799 39 42.125 C37.906875 42.12757813 36.81375 42.13015625 35.6875 42.1328125 C33 42 33 42 32 41 C31.86672749 39.34056041 31.79659369 37.67595404 31.75390625 36.01171875 C31.72103516 34.99529297 31.68816406 33.97886719 31.65429688 32.93164062 C31.59343333 30.78069706 31.53610205 28.62965045 31.48242188 26.47851562 C31.44826172 25.45822266 31.41410156 24.43792969 31.37890625 23.38671875 C31.3538501 22.45045654 31.32879395 21.51419434 31.30297852 20.54956055 C30.99238307 17.93590365 30.32311839 16.25416493 29 14 C23.06601923 13.56715881 23.06601923 13.56715881 17.5 15.25 C14.86491577 18.32426494 14.86555168 21.8023525 14.71875 25.73046875 C14.68136719 26.61541016 14.64398438 27.50035156 14.60546875 28.41210938 C14.53471156 30.2740717 14.46440461 32.13605118 14.39453125 33.99804688 C14.35714844 34.87912109 14.31976563 35.76019531 14.28125 36.66796875 C14.25095703 37.47516357 14.22066406 38.2823584 14.18945312 39.11401367 C14 41 14 41 13 42 C10.81360547 42.07258946 8.62499611 42.08373783 6.4375 42.0625 C4.64119141 42.04896484 4.64119141 42.04896484 2.80859375 42.03515625 C1.88175781 42.02355469 0.95492187 42.01195312 0 42 C-1.32339119 38.02982643 -1.01212931 34.30326443 -0.87890625 30.17578125 C-0.85529526 29.31438034 -0.83168427 28.45297943 -0.80735779 27.56547546 C-0.7307872 24.81431325 -0.6467344 22.0634372 -0.5625 19.3125 C-0.5092727 17.44727963 -0.45653235 15.58204529 -0.40429688 13.71679688 C-0.27518096 9.14435004 -0.13935423 4.57214579 0 0 Z " fill="#8860C0" transform="translate(158,228)"/>
<path d="M0 0 C0.66 0.33 1.32 0.66 2 1 C1.76410156 1.97259766 1.76410156 1.97259766 1.5234375 2.96484375 C0.98516812 6.08600279 0.8224534 9.07039505 0.70947266 12.22900391 C0.45006009 19.39508856 -0.18786013 25.97293444 -2.16796875 32.8984375 C-3.21887468 36.81589903 -3.9595872 40.7618087 -4.6875 44.75 C-4.81882324 45.46687988 -4.95014648 46.18375977 -5.08544922 46.92236328 C-5.39327467 48.61437028 -5.6970839 50.3071072 -6 52 C-6.66 52 -7.32 52 -8 52 C-8.19477739 53.62414378 -8.38059458 55.24936423 -8.5625 56.875 C-8.66691406 57.77992188 -8.77132813 58.68484375 -8.87890625 59.6171875 C-9.19674852 62.01653057 -9.19674852 62.01653057 -8 64 C-6.24063735 65.06510435 -4.4283566 65.97376213 -2.59375 66.90234375 C-1 68 -1 68 0 71 C-8.10154483 70.81038938 -15.48333015 69.11686893 -21.6328125 63.51171875 C-27.41505381 56.81193616 -29.42166723 50.91173608 -29.3515625 42.21875 C-28.47499469 34.19328467 -25.58836152 25.92124227 -20 20 C-17.4140625 18.26171875 -17.4140625 18.26171875 -14.625 16.6875 C-9.3946319 13.48651472 -6.19185636 10.18948076 -3 5 C-2.38125 4.01 -1.7625 3.02 -1.125 2 C-0.75375 1.34 -0.3825 0.68 0 0 Z " fill="#9C29A3" transform="translate(324,207)"/>
<path d="M0 0 C3.10398978 -0.08710289 6.20766548 -0.14042309 9.3125 -0.1875 C10.19357422 -0.21263672 11.07464844 -0.23777344 11.98242188 -0.26367188 C13.25375977 -0.27817383 13.25375977 -0.27817383 14.55078125 -0.29296875 C15.72120972 -0.31653442 15.72120972 -0.31653442 16.9152832 -0.34057617 C19.55836367 0.0912188 20.38428179 0.90027269 22 3 C23.01973129 6.05919388 23.11533602 8.12418025 23.09765625 11.32421875 C23.09443359 12.35224609 23.09121094 13.38027344 23.08789062 14.43945312 C23.07951172 15.51130859 23.07113281 16.58316406 23.0625 17.6875 C23.05798828 18.77095703 23.05347656 19.85441406 23.04882812 20.97070312 C23.03703743 23.64719085 23.02058063 26.32356777 23 29 C23.71027344 28.98839844 24.42054688 28.97679687 25.15234375 28.96484375 C26.07144531 28.95582031 26.99054688 28.94679688 27.9375 28.9375 C28.85402344 28.92589844 29.77054688 28.91429687 30.71484375 28.90234375 C33 29 33 29 34 30 C34.09851171 31.83115883 34.12972629 33.66619933 34.125 35.5 C34.12886719 37.00046875 34.12886719 37.00046875 34.1328125 38.53125 C34 41 34 41 33 42 C30.49075847 42.10087212 28.00963616 42.13972032 25.5 42.1328125 C24.74912109 42.13376923 23.99824219 42.13472595 23.22460938 42.13571167 C21.63411373 42.13639338 20.04361533 42.13453972 18.453125 42.13037109 C16.01035345 42.12502267 13.56776579 42.13031634 11.125 42.13671875 C9.58333293 42.13605797 8.04166597 42.1347768 6.5 42.1328125 C5.76458984 42.13483673 5.02917969 42.13686096 4.27148438 42.13894653 C-0.88504839 42.11495161 -0.88504839 42.11495161 -2 41 C-2.07244053 38.98035801 -2.08377188 36.95832876 -2.0625 34.9375 C-2.05347656 33.83277344 -2.04445312 32.72804688 -2.03515625 31.58984375 C-2.02355469 30.73519531 -2.01195312 29.88054687 -2 29 C1.63 29 5.26 29 9 29 C9 24.05 9 19.1 9 14 C7.535625 13.855625 6.07125 13.71125 4.5625 13.5625 C0.125 13.125 0.125 13.125 -1 12 C-1.09854655 10.35659133 -1.12972411 8.7088539 -1.125 7.0625 C-1.12757813 6.16660156 -1.13015625 5.27070313 -1.1328125 4.34765625 C-1 2 -1 2 0 0 Z " fill="#8A61C0" transform="translate(209,228)"/>
<path d="M0 0 C4.29 0 8.58 0 13 0 C14.125 6.75 14.125 6.75 13 10 C12.01 10 11.02 10 10 10 C10.30035156 10.53109375 10.60070312 11.0621875 10.91015625 11.609375 C11.29042969 12.31578125 11.67070312 13.0221875 12.0625 13.75 C12.44535156 14.44609375 12.82820313 15.1421875 13.22265625 15.859375 C14.16507914 18.4545898 13.68137541 19.37526513 13 22 C12.92233916 23.44098431 12.89203633 24.88508629 12.90234375 26.328125 C12.90556641 27.12734375 12.90878906 27.9265625 12.91210938 28.75 C12.92048828 29.575 12.92886719 30.4 12.9375 31.25 C12.94201172 32.09046875 12.94652344 32.9309375 12.95117188 33.796875 C12.96292039 35.86461401 12.98085478 37.93231624 13 40 C7.555 40.495 7.555 40.495 2 41 C2 40.34 2 39.68 2 39 C1.34 39 0.68 39 0 39 C-1.55043334 35.89913331 -1.1420075 32.62099234 -1.1328125 29.21875 C-1.13376923 28.44946167 -1.13472595 27.68017334 -1.13571167 26.88757324 C-1.13639254 25.26017169 -1.13454473 23.63276743 -1.13037109 22.00537109 C-1.1250215 19.51002927 -1.13031919 17.01486745 -1.13671875 14.51953125 C-1.13605795 12.94010377 -1.13477675 11.3606764 -1.1328125 9.78125 C-1.13483673 9.0322644 -1.13686096 8.28327881 -1.13894653 7.51159668 C-1.11496122 2.22992243 -1.11496122 2.22992243 0 0 Z " fill="#8960BF" transform="translate(359,228)"/>
<path d="M0 0 C1.17713417 2.35426834 0.98199498 3.465104 0.8125 6.0625 C0.74686399 10.63514225 1.96973008 13.5612726 3.984375 17.59765625 C5.48149754 21.13892688 5.9718939 24.72982114 6.5078125 28.51953125 C6.88705185 31.00528075 6.88705185 31.00528075 8.046875 33.08984375 C9.50413574 36.01033761 9.12319753 38.79686428 9 42 C9.515625 42.0825 10.03125 42.165 10.5625 42.25 C14.11629969 43.34347683 16.86110581 44.98636976 20 47 C20.33 47.99 20.66 48.98 21 50 C12.89845517 49.81038938 5.51666985 48.11686893 -0.6328125 42.51171875 C-6.41639249 35.81038505 -8.41396532 29.91524629 -8.35546875 21.22265625 C-7.53287615 13.76508597 -4.85903534 5.79949379 0 0 Z " fill="#5E1DA0" transform="translate(303,228)"/>
<path d="M0 0 C2.41154792 4.45208846 5 9.36460975 5 14.5 C2.88295008 19.7926248 -0.47317504 24.54506321 -4 29 C-3.34 29.103125 -2.68 29.20625 -2 29.3125 C0.47730692 29.88021617 2.58755952 30.57535931 4.9375 31.5 C8.26881005 32.79586065 11.4384304 33.5548038 15 34 C14.39386998 37.12413285 13.39972557 39.13369924 11.49609375 41.671875 C11.00302734 42.33574219 10.50996094 42.99960937 10.00195312 43.68359375 C9.22754883 44.70646484 9.22754883 44.70646484 8.4375 45.75 C7.91736328 46.44738281 7.39722656 47.14476562 6.86132812 47.86328125 C5.57985819 49.57974556 4.29067202 51.29044431 3 53 C-1.61994954 51.90975711 -5.41835143 50.18187458 -9 47 C-10.26206435 43.07357757 -10.31131289 40.97544707 -9.0625 37.0625 C-8.5365625 36.0415625 -8.5365625 36.0415625 -8 35 C-7.34 35 -6.68 35 -6 35 C-5.89042969 33.98421875 -5.78085937 32.9684375 -5.66796875 31.921875 C-4.80471997 24.30131175 -3.66879639 16.99578411 -1.6640625 9.57421875 C-0.84212899 6.38801768 -0.37113903 3.26602346 0 0 Z " fill="#E63A22" transform="translate(324,224)"/>
<path d="M0 0 C3.86578501 0.82602244 6.28507338 2.10283218 9 5 C11.98801162 12.73283867 13.13059594 21.74414447 13 30 C5.97047248 29.5464821 0.4150557 27.87940913 -6 25 C-4.17545637 21.07500614 -1.71699981 17.78050326 0.85546875 14.31640625 C2.30622814 11.38022769 1.89620922 10.09241424 1 7 C0.65596692 4.66822025 0.32050798 2.33512959 0 0 Z " fill="#F85F2F" transform="translate(326,228)"/>
<path d="M0 0 C0.33 0 0.66 0 1 0 C1.13536022 2.08153935 1.23215465 4.16561206 1.3125 6.25 C1.37050781 7.41015625 1.42851562 8.5703125 1.48828125 9.765625 C1 13 1 13 -1.39453125 15.421875 C-4 17 -4 17 -6 17 C-6.226875 17.7425 -6.45375 18.485 -6.6875 19.25 C-8.24874987 22.52119021 -10.15998042 23.81536955 -13 26 C-13.33 26.99 -13.66 27.98 -14 29 C-14.99 28.67 -15.98 28.34 -17 28 C-19.16784451 22.29514601 -19.95080387 16.85241161 -18 11 C-13.84116723 7.56573714 -9.45248111 5.25964196 -4 5 C-3.34 5.33 -2.68 5.66 -2 6 C-1.34 4.02 -0.68 2.04 0 0 Z " fill="#9A2CA6" transform="translate(322,216)"/>
<path d="M0 0 C1.32 0 2.64 0 4 0 C4.7222991 6.62107512 3.30208361 9.8868756 -0.4921875 15.3125 C-1.23855469 16.1478125 -1.23855469 16.1478125 -2 17 C-2.66 17 -3.32 17 -4 17 C-4 17.66 -4 18.32 -4 19 C-10.6800221 22.85167232 -16.26442661 24.81895467 -24 25 C-23.01 24.67 -22.02 24.34 -21 24 C-20.29580011 22.68610323 -19.63834874 21.3471203 -19 20 C-16.71918367 16.88218685 -14.35773495 13.83425211 -11.99609375 10.77734375 C-9.87267157 8.11280853 -9.87267157 8.11280853 -9 5 C-7.00882592 4.30741771 -5.0078864 3.64252365 -3 3 C-2.46375 2.46375 -1.9275 1.9275 -1.375 1.375 C-0.92125 0.92125 -0.4675 0.4675 0 0 Z " fill="#FD7527" transform="translate(348,253)"/>
<path d="M0 0 C3.10398978 -0.08710289 6.20766548 -0.14042309 9.3125 -0.1875 C10.19357422 -0.21263672 11.07464844 -0.23777344 11.98242188 -0.26367188 C13.25375977 -0.27817383 13.25375977 -0.27817383 14.55078125 -0.29296875 C15.72120972 -0.31653442 15.72120972 -0.31653442 16.9152832 -0.34057617 C19.55836367 0.0912188 20.38428179 0.90027269 22 3 C23.01973129 6.05919388 23.11533602 8.12418025 23.09765625 11.32421875 C23.09443359 12.35224609 23.09121094 13.38027344 23.08789062 14.43945312 C23.07951172 15.51130859 23.07113281 16.58316406 23.0625 17.6875 C23.05798828 18.77095703 23.05347656 19.85441406 23.04882812 20.97070312 C23.03703743 23.64719085 23.02058063 26.32356777 23 29 C23.71027344 28.98839844 24.42054688 28.97679687 25.15234375 28.96484375 C26.07144531 28.95582031 26.99054688 28.94679688 27.9375 28.9375 C28.85402344 28.92589844 29.77054688 28.91429687 30.71484375 28.90234375 C33 29 33 29 34 30 C34.09851171 31.83115883 34.12972629 33.66619933 34.125 35.5 C34.12886719 37.00046875 34.12886719 37.00046875 34.1328125 38.53125 C34 41 34 41 33 42 C30.49075847 42.10087212 28.00963616 42.13972032 25.5 42.1328125 C24.74912109 42.13376923 23.99824219 42.13472595 23.22460938 42.13571167 C21.63411373 42.13639338 20.04361533 42.13453972 18.453125 42.13037109 C16.01035345 42.12502267 13.56776579 42.13031634 11.125 42.13671875 C9.58333293 42.13605797 8.04166597 42.1347768 6.5 42.1328125 C5.76458984 42.13483673 5.02917969 42.13686096 4.27148438 42.13894653 C-0.88504839 42.11495161 -0.88504839 42.11495161 -2 41 C-2.07244053 38.98035801 -2.08377188 36.95832876 -2.0625 34.9375 C-2.05347656 33.83277344 -2.04445312 32.72804688 -2.03515625 31.58984375 C-2.02355469 30.73519531 -2.01195312 29.88054687 -2 29 C1.3 29 4.6 29 8 29 C7.67 29.66 7.34 30.32 7 31 C4.69 31 2.38 31 0 31 C0 34.3 0 37.6 0 41 C3.47935617 40.85792377 6.9584365 40.71144393 10.4375 40.5625 C11.41138672 40.52318359 12.38527344 40.48386719 13.38867188 40.44335938 C19.30061599 40.18631833 25.12645997 39.72280379 31 39 C31 36.36 31 33.72 31 31 C30.36191406 31.01160156 29.72382813 31.02320313 29.06640625 31.03515625 C28.24011719 31.04417969 27.41382813 31.05320312 26.5625 31.0625 C25.32693359 31.07990234 25.32693359 31.07990234 24.06640625 31.09765625 C22 31 22 31 21 30 C20.92492192 28.35053466 20.91682606 26.69791867 20.9375 25.046875 C20.94523437 24.03496094 20.95296875 23.02304688 20.9609375 21.98046875 C20.98679026 19.84244562 21.01282914 17.70442474 21.0390625 15.56640625 C21.04679687 14.54933594 21.05453125 13.53226563 21.0625 12.484375 C21.07410156 11.55334961 21.08570313 10.62232422 21.09765625 9.66308594 C21.05596133 6.5862552 21.05596133 6.5862552 20 2 C13.4 2 6.8 2 0 2 C0 1.34 0 0.68 0 0 Z " fill="#7C5FAA" transform="translate(209,228)"/>
<path d="M0 0 C2.5 1.625 2.5 1.625 4 4 C4.60024477 7.60146865 4.45562482 9.27859404 2.5 12.375 C-1.01077404 14.65700312 -3.92470662 14.81004807 -8 14 C-10.5 12.4375 -10.5 12.4375 -12 10 C-12.5 6.4375 -12.5 6.4375 -12 3 C-9.0240843 -0.84389111 -4.4958763 -0.81994465 0 0 Z " fill="#8264B4" transform="translate(228,212)"/>
<path d="M0 0 C3.06523125 1.92715034 4.48264089 4.03140568 5.953125 7.2421875 C5.41945313 6.8090625 4.88578125 6.3759375 4.3359375 5.9296875 C-0.69545698 2.16919889 -4.40099678 0.36083406 -10.74609375 0.78515625 C-14.27800779 1.48674189 -16.42044103 2.81273608 -19.046875 5.2421875 C-19.76598447 6.88690747 -20.44153516 8.55228043 -21.046875 10.2421875 C-20.29921875 10.23058594 -19.5515625 10.21898437 -18.78125 10.20703125 C-17.79640625 10.19800781 -16.8115625 10.18898437 -15.796875 10.1796875 C-14.33507812 10.16228516 -14.33507812 10.16228516 -12.84375 10.14453125 C-10.38928822 10.23023173 -8.38518586 10.53512684 -6.046875 11.2421875 C-6.376875 12.2321875 -6.706875 13.2221875 -7.046875 14.2421875 C-7.5625 13.8915625 -8.078125 13.5409375 -8.609375 13.1796875 C-12.07452882 11.84693603 -14.47729927 12.3984696 -18.046875 13.2421875 C-20.63142785 15.13752625 -21.00963006 16.13045267 -22.046875 19.2421875 C-22.1826458 20.85639033 -22.27094823 22.47485677 -22.328125 24.09375 C-22.36550781 25.02703125 -22.40289062 25.9603125 -22.44140625 26.921875 C-22.51199815 28.89321918 -22.58230845 30.86457347 -22.65234375 32.8359375 C-22.68972656 33.76664062 -22.72710937 34.69734375 -22.765625 35.65625 C-22.81106445 36.93943115 -22.81106445 36.93943115 -22.85742188 38.24853516 C-23.046875 40.2421875 -23.046875 40.2421875 -24.046875 41.2421875 C-26.23326953 41.31477696 -28.42187889 41.32592533 -30.609375 41.3046875 C-32.40568359 41.29115234 -32.40568359 41.29115234 -34.23828125 41.27734375 C-35.16511719 41.26574219 -36.09195312 41.25414062 -37.046875 41.2421875 C-37.376875 39.5921875 -37.706875 37.9421875 -38.046875 36.2421875 C-37.716875 36.9021875 -37.386875 37.5621875 -37.046875 38.2421875 C-36.386875 38.2421875 -35.726875 38.2421875 -35.046875 38.2421875 C-35.046875 38.9021875 -35.046875 39.5621875 -35.046875 40.2421875 C-31.746875 39.5821875 -28.446875 38.9221875 -25.046875 38.2421875 C-25.05847656 37.06140625 -25.07007813 35.880625 -25.08203125 34.6640625 C-25.09141252 33.10677242 -25.10051236 31.54948062 -25.109375 29.9921875 C-25.11775391 29.21488281 -25.12613281 28.43757813 -25.13476562 27.63671875 C-25.13798828 26.88261719 -25.14121094 26.12851563 -25.14453125 25.3515625 C-25.14976807 24.66030273 -25.15500488 23.96904297 -25.16040039 23.25683594 C-25.046875 21.2421875 -25.046875 21.2421875 -24.45092773 19.18066406 C-23.79714668 16.04409514 -25.56970457 13.96018108 -27.046875 11.2421875 C-27.046875 10.5821875 -27.046875 9.9221875 -27.046875 9.2421875 C-26.386875 9.2421875 -25.726875 9.2421875 -25.046875 9.2421875 C-25.046875 9.9021875 -25.046875 10.5621875 -25.046875 11.2421875 C-24.386875 11.2421875 -23.726875 11.2421875 -23.046875 11.2421875 C-22.964375 10.5203125 -22.881875 9.7984375 -22.796875 9.0546875 C-21.73864745 5.08633417 -19.77273267 2.33561168 -16.27734375 0.12109375 C-11.39858615 -1.8013589 -4.92044408 -1.82169113 0 0 Z " fill="#795DAE" transform="translate(396.046875,228.7578125)"/>
<path d="M0 0 C0.99 0 1.98 0 3 0 C3.103125 0.639375 3.20625 1.27875 3.3125 1.9375 C3.539375 2.618125 3.76625 3.29875 4 4 C4.99 4.33 5.98 4.66 7 5 C7 5.99 7 6.98 7 8 C7.804375 8.144375 8.60875 8.28875 9.4375 8.4375 C12 9 12 9 13 10 C13.375 12.375 13.375 12.375 13 15 C10.625 16.6875 10.625 16.6875 8 18 C7.34 18.66 6.68 19.32 6 20 C3.375 20.125 3.375 20.125 1 20 C-0.7958955 13.02420757 -1.12067256 7.11778518 0 0 Z " fill="#FD9834" transform="translate(338,238)"/>
<path d="M0 0 C0.99 0.33 1.98 0.66 3 1 C3.625 2.8125 3.625 2.8125 4 5 C4.185625 5.7425 4.37125 6.485 4.5625 7.25 C4.706875 7.8275 4.85125 8.405 5 9 C3.02 9.66 1.04 10.32 -1 11 C-1 11.66 -1 12.32 -1 13 C-4.33531201 12.6845882 -7.66762261 12.3448962 -11 12 C-12.299375 11.87625 -13.59875 11.7525 -14.9375 11.625 C-18.05218515 10.98934997 -19.14115725 10.51490489 -21 8 C-20.67 7.01 -20.34 6.02 -20 5 C-17.69 5.66 -15.38 6.32 -13 7 C-12.67 6.01 -12.34 5.02 -12 4 C-11.46375 4.20625 -10.9275 4.4125 -10.375 4.625 C-7.18490557 5.12869912 -5.01217457 4.04771289 -2 3 C-1.34 3.33 -0.68 3.66 0 4 C0 2.68 0 1.36 0 0 Z " fill="#8A62C2" transform="translate(281,240)"/>
<path d="M0 0 C0.33 0 0.66 0 1 0 C1.061875 1.051875 1.12375 2.10375 1.1875 3.1875 C2.16757087 7.7862941 3.53301712 8.91823744 7 12 C8.08076719 13.19202264 9.14288997 14.40116766 10.1875 15.625 C10.67605469 16.19476563 11.16460937 16.76453125 11.66796875 17.3515625 C14.277772 20.58128969 15 21.70662545 15 26 C15.99 26 16.98 26 18 26 C18 26.99 18 27.98 18 29 C19.98 29.33 21.96 29.66 24 30 C24 30.33 24 30.66 24 31 C16.94797825 30.74356285 12.29502958 28.70886395 7 24 C1.95390346 17.89823473 -0.15656861 13.15176286 -0.0625 5.25 C-0.05347656 4.26515625 -0.04445313 3.2803125 -0.03515625 2.265625 C-0.02355469 1.51796875 -0.01195312 0.7703125 0 0 Z " fill="#46158D" transform="translate(295,246)"/>
<path d="M0 0 C0.763125 0.309375 1.52625 0.61875 2.3125 0.9375 C4.18789677 1.67893593 6.08684652 2.36228217 8 3 C8.33 3.66 8.66 4.32 9 5 C9.99 5.33 10.98 5.66 12 6 C11.69240822 7.97993541 11.3787932 9.95893599 11.0625 11.9375 C10.88847656 13.03964844 10.71445312 14.14179688 10.53515625 15.27734375 C10 18 10 18 9 19 C8.95919217 20.99958364 8.95745644 23.00045254 9 25 C8.01 25 7.02 25 6 25 C5.896875 23.989375 5.79375 22.97875 5.6875 21.9375 C5.09685921 18.55473912 4.20072227 16.11717223 2.765625 13.04296875 C1.20057535 8.86684137 0.67518961 4.39270418 0 0 Z " fill="#842093" transform="translate(306,245)"/>
<path d="M0 0 C0.66 0.33 1.32 0.66 2 1 C1.84273438 1.64839844 1.68546875 2.29679688 1.5234375 2.96484375 C0.98516812 6.08600279 0.8224534 9.07039505 0.70947266 12.22900391 C0.45006009 19.39508856 -0.18786013 25.97293444 -2.16796875 32.8984375 C-3.21887468 36.81589903 -3.9595872 40.7618087 -4.6875 44.75 C-4.81882324 45.46687988 -4.95014648 46.18375977 -5.08544922 46.92236328 C-5.39327467 48.61437028 -5.6970839 50.3071072 -6 52 C-6.33 52 -6.66 52 -7 52 C-6.50877547 43.86894139 -5.64733759 35.98079085 -4 28 C-4.99 28 -5.98 28 -7 28 C-7.33 27.34 -7.66 26.68 -8 26 C-7.01 25.5875 -6.02 25.175 -5 24.75 C-3.23784121 23.75245024 -3.23784121 23.75245024 -2 22 C-1.45174636 17.95797317 -1.65565834 14.05557951 -2 10 C-2.66 11.65 -3.32 13.3 -4 15 C-5.98 15 -7.96 15 -10 15 C-9.61328125 14.50371094 -9.2265625 14.00742188 -8.828125 13.49609375 C-5.49729049 9.15116853 -2.60742538 4.81370839 0 0 Z " fill="#A72A82" transform="translate(324,207)"/>
<path d="M0 0 C0.66 0 1.32 0 2 0 C2.23074219 0.75023437 2.46148437 1.50046875 2.69921875 2.2734375 C4.66540549 8.44399983 6.87234505 14.09504796 10.046875 19.74609375 C11.13584271 22.3212346 11.17577166 24.23159629 11 27 C10.76410156 26.3915625 10.52820313 25.783125 10.28515625 25.15625 C8.31321144 21.84769821 5.38883801 20.95055368 1.99609375 19.34375 C0 18 0 18 -0.76953125 16.19140625 C-1.04297557 13.59136792 -1.13211586 11.05257981 -1.125 8.4375 C-1.12757813 7.48746094 -1.13015625 6.53742188 -1.1328125 5.55859375 C-1 3 -1 3 0 0 Z " fill="#FC773A" transform="translate(325,210)"/>
<path d="M0 0 C1.17252292 2.34504584 1.0403346 3.58980846 0.9375 6.1875 C0.87432834 10.52528699 1.60653033 13.90668284 3 18 C2.236875 18.2475 1.47375 18.495 0.6875 18.75 C-2.26180029 20.12176758 -3.17431019 21.3918717 -5 24 C-5.66 24 -6.32 24 -7 24 C-7.8248422 15.71491835 -5.83391905 9.34253587 -2 2 C-1.34 1.34 -0.68 0.68 0 0 Z " fill="#6A2B95" transform="translate(303,228)"/>
<path d="M0 0 C2.41154792 4.45208846 5 9.36460975 5 14.5 C2.6910931 20.27226725 -1.01010526 25.27123586 -5 30 C-4.60036138 22.99943392 -3.50705054 16.52275519 -1.69921875 9.75 C-0.87293473 6.50025724 -0.37817265 3.32791933 0 0 Z " fill="#D9435A" transform="translate(324,224)"/>
<path d="M0 0 C1.03725961 3.11177882 0.93467353 4.08734761 0.375 7.1875 C-0.26883108 12.19960271 0.93400877 15.49417151 3 20 C3.309375 20.94875 3.61875 21.8975 3.9375 22.875 C5.26837289 25.53674579 6.2443564 25.97647524 9 27 C9.78375 27.350625 10.5675 27.70125 11.375 28.0625 C14.23827149 29.08509696 16.99391003 29.58054559 20 30 C20.33 29.34 20.66 28.68 21 28 C21.33 28.33 21.66 28.66 22 29 C24.00665114 28.97366836 24.00665114 28.97366836 26.3125 28.6875 C27.09238281 28.60886719 27.87226563 28.53023438 28.67578125 28.44921875 C31.08207271 27.98413721 32.87133832 27.19341444 35 26 C35 24.68 35 23.36 35 22 C36.98 21.67 38.96 21.34 41 21 C39.26375558 25.41953125 36.39921047 27.76896406 32.2109375 29.91796875 C24.64116833 33.12984292 17.63666943 32.7828822 10.00390625 29.90234375 C3.86067562 27.1360937 1.50107601 22.97070596 -1 17 C-2.98807394 11.03577817 -2.29811043 5.74527607 0 0 Z " fill="#7A61A8" transform="translate(245,239)"/>
<path d="M0 0 C3.55025309 3.55025309 3.12786364 7.41855188 3.1328125 12.26171875 C3.13474609 14.06286133 3.13474609 14.06286133 3.13671875 15.90039062 C3.13285156 17.15013672 3.12898438 18.39988281 3.125 19.6875 C3.12886719 20.94884766 3.13273437 22.21019531 3.13671875 23.50976562 C3.13542969 24.70666016 3.13414062 25.90355469 3.1328125 27.13671875 C3.13168457 28.23717529 3.13055664 29.33763184 3.12939453 30.47143555 C3 33 3 33 2 34 C0.00200428 34.09873816 -1.99957158 34.12971799 -4 34.125 C-5.093125 34.12757813 -6.18625 34.13015625 -7.3125 34.1328125 C-10 34 -10 34 -11 33 C-11.08700342 31.36527118 -11.10701063 29.72685945 -11.09765625 28.08984375 C-11.09443359 27.10048828 -11.09121094 26.11113281 -11.08789062 25.09179688 C-11.07951172 24.05087891 -11.07113281 23.00996094 -11.0625 21.9375 C-11.05798828 20.89271484 -11.05347656 19.84792969 -11.04882812 18.77148438 C-11.03699913 16.1809334 -11.02051689 13.59049441 -11 11 C-10.01 11.495 -10.01 11.495 -9 12 C-9 18.6 -9 25.2 -9 32 C-5.37 32 -1.74 32 2 32 C1.85959787 28.70801809 1.71293125 25.41652554 1.5625 22.125 C1.52318359 21.18785156 1.48386719 20.25070312 1.44335938 19.28515625 C1.40146484 18.38925781 1.35957031 17.49335938 1.31640625 16.5703125 C1.27974854 15.74289551 1.24309082 14.91547852 1.20532227 14.06298828 C1.11761673 11.93820571 1.11761673 11.93820571 0 10 C-0.06996014 8.29297265 -0.08440154 6.58331997 -0.0625 4.875 C-0.05347656 3.96492187 -0.04445313 3.05484375 -0.03515625 2.1171875 C-0.02355469 1.41851562 -0.01195312 0.71984375 0 0 Z " fill="#7D63A7" transform="translate(402,236)"/>
<path d="M0 0 C0.33 0.66 0.66 1.32 1 2 C0.00390625 3.9453125 0.00390625 3.9453125 -1.4375 6.125 C-1.91058594 6.84945313 -2.38367188 7.57390625 -2.87109375 8.3203125 C-3.24363281 8.87460937 -3.61617188 9.42890625 -4 10 C-3.11054688 9.47792969 -3.11054688 9.47792969 -2.203125 8.9453125 C0 8 0 8 3.25 8.875 C4.1575 9.24625 5.065 9.6175 6 10 C0.95308069 14.72131161 -4.72073399 16.82740705 -11.5625 17.1875 C-12.7690625 17.0946875 -12.7690625 17.0946875 -14 17 C-13.01 16.67 -12.02 16.34 -11 16 C-10.2943517 14.68688055 -9.63757026 13.34748892 -9 12 C-7.48472059 9.88845541 -5.953816 7.8123284 -4.375 5.75 C-3.95476562 5.19570313 -3.53453125 4.64140625 -3.1015625 4.0703125 C-2.07061281 2.71133337 -1.03570089 1.35536165 0 0 Z " fill="#E95A2D" transform="translate(338,261)"/>
<path d="M0 0 C2.25 0.5 2.25 0.5 5 2 C5.8359375 3.73828125 5.8359375 3.73828125 6.625 5.8125 C8.84247782 10.71054338 12.11688039 12.1639404 16.98046875 14.09765625 C23.16195885 15.9449062 29.72617969 16.89277969 36 15 C36.66 14.01 37.32 13.02 38 12 C38 12.66 38 13.32 38 14 C38.94875 13.484375 39.8975 12.96875 40.875 12.4375 C41.90625 11.963125 42.9375 11.48875 44 11 C44.66 11.33 45.32 11.66 46 12 C44.60922699 12.82113177 43.21211107 13.63152495 41.8125 14.4375 C41.03519531 14.88996094 40.25789063 15.34242188 39.45703125 15.80859375 C32.20336457 19.32587251 23.80420739 18.85849585 16.3125 16.375 C7.75532273 12.91828715 3.61729928 8.39213432 0 0 Z " fill="#795EAE" transform="translate(97,253)"/>
<path d="M0 0 C2.11295256 3.16942884 2.25250929 3.99629953 2.1875 7.625 C2.18105469 8.42164063 2.17460937 9.21828125 2.16796875 10.0390625 C2 12 2 12 1 13 C1.66 13.33 2.32 13.66 3 14 C2.67 15.98 2.34 17.96 2 20 C1.67 19.01 1.34 18.02 1 17 C-0.79133978 16.94608007 -2.58313899 16.90724429 -4.375 16.875 C-5.37273437 16.85179687 -6.37046875 16.82859375 -7.3984375 16.8046875 C-10.16262173 16.72783152 -10.16262173 16.72783152 -12 19 C-12.99 18.67 -13.98 18.34 -15 18 C-13.68 16.68 -12.36 15.36 -11 14 C-13.97 13.505 -13.97 13.505 -17 13 C-17 12.67 -17 12.34 -17 12 C-15.86111328 12.05220703 -15.86111328 12.05220703 -14.69921875 12.10546875 C-13.70535156 12.13253906 -12.71148437 12.15960938 -11.6875 12.1875 C-10.70136719 12.22230469 -9.71523438 12.25710937 -8.69921875 12.29296875 C-5.56329894 11.95260119 -5.02882904 11.26681485 -3 9 C-2.01 9 -1.02 9 0 9 C0 6.03 0 3.06 0 0 Z " fill="#785DAC" transform="translate(285,240)"/>
<path d="M0 0 C0.33 0 0.66 0 1 0 C1 3.3 1 6.6 1 10 C-4.61 10.99 -10.22 11.98 -16 13 C-12.78518318 7.64197197 -11.71286644 6.80406309 -6 5 C-3.5625 5.3125 -3.5625 5.3125 -2 6 C-1.34 4.02 -0.68 2.04 0 0 Z " fill="#9735BC" transform="translate(322,216)"/>
<path d="M0 0 C0.33 0 0.66 0 1 0 C1.02886338 4.47915328 1.04675187 8.95828291 1.0625 13.4375 C1.07087891 14.71689453 1.07925781 15.99628906 1.08789062 17.31445312 C1.09111328 18.52939453 1.09433594 19.74433594 1.09765625 20.99609375 C1.10289307 22.12200928 1.10812988 23.2479248 1.11352539 24.40795898 C1 27 1 27 0 28 C-1.99799572 28.09873816 -3.99957158 28.12971799 -6 28.125 C-7.093125 28.12757813 -8.18625 28.13015625 -9.3125 28.1328125 C-12 28 -12 28 -13 27 C-13.08713831 25.29227642 -13.10700007 23.58101351 -13.09765625 21.87109375 C-13.09443359 20.83662109 -13.09121094 19.80214844 -13.08789062 18.73632812 C-13.07951172 17.64771484 -13.07113281 16.55910156 -13.0625 15.4375 C-13.05798828 14.34501953 -13.05347656 13.25253906 -13.04882812 12.12695312 C-13.03699826 9.41791505 -13.02051543 6.70898401 -13 4 C-12.67 4 -12.34 4 -12 4 C-11.67 10.93 -11.34 17.86 -11 25 C-7.7 25 -4.4 25 -1 25 C-0.67 16.75 -0.34 8.5 0 0 Z " fill="#7A5EA8" transform="translate(203,242)"/>
<path d="M0 0 C3.1875 -0.3125 3.1875 -0.3125 6 0 C5.61402985 2.79828356 5.19863427 3.8205884 3.0625 5.75 C1 7 1 7 -1 7 C-1.20625 7.721875 -1.4125 8.44375 -1.625 9.1875 C-3.47528988 12.97218384 -5.60240438 14.52258653 -9 17 C-9.66 17 -10.32 17 -11 17 C-10.25 14.625 -10.25 14.625 -9 12 C-7.66666667 11.33333333 -6.33333333 10.66666667 -5 10 C-3.87914688 7.6569191 -3.87914688 7.6569191 -3 5 C-1.75 2.1875 -1.75 2.1875 0 0 Z " fill="#B4319A" transform="translate(317,226)"/>
<path d="M0 0 C1.485 0.99 1.485 0.99 3 2 C3.1875 5.625 3.1875 5.625 3 9 C3.515625 9.0825 4.03125 9.165 4.5625 9.25 C8.11629969 10.34347683 10.86110581 11.98636976 14 14 C14.33 14.99 14.66 15.98 15 17 C13.35 17 11.7 17 10 17 C10 16.34 10 15.68 10 15 C7.03 14.505 7.03 14.505 4 14 C4 13.01 4 12.02 4 11 C3.01 11 2.02 11 1 11 C-0.62950412 6.87831311 -1.26264601 4.29299643 0 0 Z " fill="#611A94" transform="translate(309,261)"/>
<path d="M0 0 C0.1875 3.375 0.1875 3.375 0 7 C-3.28194629 9.1879642 -4.22475937 9.18876203 -8 9 C-8.99 9 -9.98 9 -11 9 C-11.66 9 -12.32 9 -13 9 C-11.8141763 5.62496331 -10.72426311 3.35277269 -8 1 C-7.67 1.99 -7.34 2.98 -7 4 C-5.824375 3.01 -5.824375 3.01 -4.625 2 C-2 0 -2 0 0 0 Z " fill="#F56429" transform="translate(347,262)"/>
<path d="M0 0 C0.33 0 0.66 0 1 0 C1.10957031 0.78503906 1.21914063 1.57007813 1.33203125 2.37890625 C2.2393297 8.39068055 3.27814134 13.55628269 6 19 C6.33 19.66 6.66 20.32 7 21 C7.99 21.33 8.98 21.66 10 22 C10 22.99 10 23.98 10 25 C12.64 25.33 15.28 25.66 18 26 C18 26.99 18 27.98 18 29 C19.98 29.33 21.96 29.66 24 30 C24 30.33 24 30.66 24 31 C16.94797825 30.74356285 12.29502958 28.70886395 7 24 C1.95390346 17.89823473 -0.15656861 13.15176286 -0.0625 5.25 C-0.05347656 4.26515625 -0.04445313 3.2803125 -0.03515625 2.265625 C-0.02355469 1.51796875 -0.01195312 0.7703125 0 0 Z " fill="#3E2272" transform="translate(295,246)"/>
<path d="M0 0 C1.02222656 -0.00773438 2.04445312 -0.01546875 3.09765625 -0.0234375 C6.24007047 0.41745143 7.61512023 1.26982121 9.9375 3.375 C7.2975 3.705 4.6575 4.035 1.9375 4.375 C1.6075 3.715 1.2775 3.055 0.9375 2.375 C-2.09184491 1.71727572 -2.09184491 1.71727572 -5.0625 1.375 C-5.0625 2.035 -5.0625 2.695 -5.0625 3.375 C-5.97 3.91125 -6.8775 4.4475 -7.8125 5 C-11.84479894 7.50346522 -13.30036232 11.10440751 -15.0625 15.375 C-16.0525 15.045 -17.0425 14.715 -18.0625 14.375 C-18.0625 12.725 -18.0625 11.075 -18.0625 9.375 C-17.4025 10.035 -16.7425 10.695 -16.0625 11.375 C-15.75957031 10.83230469 -15.45664063 10.28960937 -15.14453125 9.73046875 C-14.72558594 9.01503906 -14.30664062 8.29960937 -13.875 7.5625 C-13.46894531 6.85480469 -13.06289062 6.14710938 -12.64453125 5.41796875 C-9.1787127 0.94235615 -5.50412003 -0.04175059 0 0 Z " fill="#7658B0" transform="translate(187.0625,227.625)"/>
<path d="M0 0 C0.33 0 0.66 0 1 0 C1.02887512 3.64581687 1.04675585 7.29160463 1.0625 10.9375 C1.07087891 11.97841797 1.07925781 13.01933594 1.08789062 14.09179688 C1.09111328 15.08115234 1.09433594 16.07050781 1.09765625 17.08984375 C1.10289307 18.00628662 1.10812988 18.92272949 1.11352539 19.86694336 C1 22 1 22 0 23 C-2.18639453 23.07258946 -4.37500389 23.08373783 -6.5625 23.0625 C-8.35880859 23.04896484 -8.35880859 23.04896484 -10.19140625 23.03515625 C-11.11824219 23.02355469 -12.04507812 23.01195312 -13 23 C-13.33 21.35 -13.66 19.7 -14 18 C-13.67 18.66 -13.34 19.32 -13 20 C-12.34 20 -11.68 20 -11 20 C-11 20.66 -11 21.32 -11 22 C-7.7 21.34 -4.4 20.68 -1 20 C-1.01160156 18.80761719 -1.02320313 17.61523438 -1.03515625 16.38671875 C-1.04453592 14.82031406 -1.05363593 13.25390769 -1.0625 11.6875 C-1.07506836 10.50897461 -1.07506836 10.50897461 -1.08789062 9.30664062 C-1.09111328 8.54931641 -1.09433594 7.79199219 -1.09765625 7.01171875 C-1.10289307 6.31522217 -1.10812988 5.61872559 -1.11352539 4.90112305 C-1 3 -1 3 0 0 Z " fill="#7763A1" transform="translate(372,247)"/>
<path d="M0 0 C-2.42130331 2.42130331 -3.80111377 2.52840504 -7.125 3.125 C-8.03507812 3.29257813 -8.94515625 3.46015625 -9.8828125 3.6328125 C-10.58148438 3.75398437 -11.28015625 3.87515625 -12 4 C-7.9687339 7.3866267 -5.14317962 7.5714017 0 8 C-0.33 8.66 -0.66 9.32 -1 10 C-1.99 10 -2.98 10 -4 10 C-4.33 10.66 -4.66 11.32 -5 12 C-5.99 12 -6.98 12 -8 12 C-8.33 11.01 -8.66 10.02 -9 9 C-10.2684375 8.071875 -10.2684375 8.071875 -11.5625 7.125 C-14 5 -14 5 -14.3125 2.25 C-14.209375 1.5075 -14.10625 0.765 -14 0 C-4.58997722 -1.33257403 -4.58997722 -1.33257403 0 0 Z M-13 11 C-11 12 -11 12 -11 12 Z " fill="#8062B2" transform="translate(270,251)"/>
<path d="M0 0 C0.66 0.33 1.32 0.66 2 1 C1.76120117 1.84365112 1.76120117 1.84365112 1.51757812 2.7043457 C0.97921492 5.09218966 0.81010367 7.28602925 0.71875 9.73046875 C0.68136719 10.61541016 0.64398438 11.50035156 0.60546875 12.41210938 C0.53471156 14.2740717 0.46440461 16.13605118 0.39453125 17.99804688 C0.35714844 18.87912109 0.31976563 19.76019531 0.28125 20.66796875 C0.23581055 21.87876099 0.23581055 21.87876099 0.18945312 23.11401367 C0 25 0 25 -1 26 C-3.18639453 26.07258946 -5.37500389 26.08373783 -7.5625 26.0625 C-9.35880859 26.04896484 -9.35880859 26.04896484 -11.19140625 26.03515625 C-12.11824219 26.02355469 -13.04507813 26.01195312 -14 26 C-14 25.34 -14 24.68 -14 24 C-10.04 23.67 -6.08 23.34 -2 23 C-1.93941406 21.50726563 -1.87882813 20.01453125 -1.81640625 18.4765625 C-1.73200827 16.52603138 -1.6473599 14.57551108 -1.5625 12.625 C-1.52318359 11.64015625 -1.48386719 10.6553125 -1.44335938 9.640625 C-1.40146484 8.69960937 -1.35957031 7.75859375 -1.31640625 6.7890625 C-1.27974854 5.91975098 -1.24309082 5.05043945 -1.20532227 4.15478516 C-1 2 -1 2 0 0 Z " fill="#765CA4" transform="translate(172,244)"/>
<path d="M0 0 C0.763125 0.309375 1.52625 0.61875 2.3125 0.9375 C4.18789677 1.67893593 6.08684652 2.36228217 8 3 C7.01 7.62 6.02 12.24 5 17 C2.70053583 13.55080374 2.19230965 10.8618978 1.375 6.8125 C0.98441406 4.90404297 0.98441406 4.90404297 0.5859375 2.95703125 C0.39257812 1.98121094 0.19921875 1.00539062 0 0 Z " fill="#811F9C" transform="translate(306,245)"/>
<path d="M0 0 C2.49619254 1.87214441 2.96865123 2.7895154 3.4375 5.9375 C2.91278296 9.61051925 1.82790258 10.70232915 -1 13 C-1.99 12.67 -2.98 12.34 -4 12 C-3.34 11.01 -2.68 10.02 -2 9 C-2.165 8.175 -2.33 7.35 -2.5 6.5 C-2.665 5.675 -2.83 4.85 -3 4 C-1 1 -1 1 0 0 Z " fill="#7A5BB8" transform="translate(229,213)"/>
<path d="M0 0 C1.65 0.33 3.3 0.66 5 1 C5.33 2.65 5.66 4.3 6 6 C4.88625 6.37125 4.88625 6.37125 3.75 6.75 C0.79875938 8.09147301 -0.84814974 9.60905526 -3 12 C-3.1953125 5.9453125 -3.1953125 5.9453125 -3 4 C-2.34 3.34 -1.68 2.68 -1 2 C-0.67 1.34 -0.34 0.68 0 0 Z " fill="#6E24A8" transform="translate(300,240)"/>
<path d="M0 0 C0.66 0 1.32 0 2 0 C2.99 3.3 3.98 6.6 5 10 C4.34 10 3.68 10 3 10 C3 9.34 3 8.68 3 8 C2.34 8 1.68 8 1 8 C1.309375 9.918125 1.309375 9.918125 1.625 11.875 C1.9765625 14.0546875 1.9765625 14.0546875 2 16 C1.34 16.66 0.68 17.32 0 18 C-0.96604701 14.75684218 -1.13419024 11.81491334 -1.125 8.4375 C-1.12757813 7.48746094 -1.13015625 6.53742188 -1.1328125 5.55859375 C-1 3 -1 3 0 0 Z " fill="#EB7157" transform="translate(325,210)"/>
<path d="M0 0 C2.81057656 1.98796878 4.06702468 3.73846739 5.5625 6.8125 C4.5725 7.3075 4.5725 7.3075 3.5625 7.8125 C2.6653125 6.6059375 2.6653125 6.6059375 1.75 5.375 C-0.60450223 2.61686882 -1.87146913 1.94300257 -5.453125 1.64453125 C-10.52393845 1.60020596 -14.63396897 2.1772554 -19.4375 3.8125 C-19.4375 3.1525 -19.4375 2.4925 -19.4375 1.8125 C-13.17282432 -2.14413727 -6.90108048 -2.38400962 0 0 Z " fill="#775FA8" transform="translate(133.4375,224.1875)"/>
<path d="M0 0 C-0.020625 0.928125 -0.04125 1.85625 -0.0625 2.8125 C-0.15769604 6.02286011 -0.15769604 6.02286011 1 9 C-0.98 9.33 -2.96 9.66 -5 10 C-4.67 8.68 -4.34 7.36 -4 6 C-4.99 5.34 -5.98 4.68 -7 4 C-7 3.01 -7 2.02 -7 1 C-4.53721199 -0.231394 -2.7204945 -0.07159196 0 0 Z " fill="#8B62C4" transform="translate(227,214)"/>
<path d="M0 0 C2 2 2 2 2.265625 4.828125 C2.25789063 6.52195313 2.25789063 6.52195313 2.25 8.25 C2.25515625 9.36890625 2.2603125 10.4878125 2.265625 11.640625 C1.9951741 15.06103339 1.21960804 17.80578847 0 21 C-0.33 21 -0.66 21 -1 21 C-1.18451025 6.21867882 -1.18451025 6.21867882 0 0 Z " fill="#A84EBF" transform="translate(359,241)"/>
<path d="M0 0 C5.02659013 4.48317498 7.7924499 8.39945698 8.1796875 15.1171875 C8.18667015 18.08481359 8.13142944 21.03553589 8 24 C7.67 24 7.34 24 7 24 C6.86722656 23.08476562 6.73445313 22.16953125 6.59765625 21.2265625 C6.42105469 20.03804687 6.24445313 18.84953125 6.0625 17.625 C5.88847656 16.44164062 5.71445312 15.25828125 5.53515625 14.0390625 C5.16537214 11.09297619 5.16537214 11.09297619 4 9 C3.01 8.34 2.02 7.68 1 7 C0.3125 3.375 0.3125 3.375 0 0 Z " fill="#E38D4C" transform="translate(345,234)"/>
<path d="M0 0 C0.66 0 1.32 0 2 0 C2.0543965 2.37531394 2.09385864 4.74935883 2.125 7.125 C2.14175781 7.79015625 2.15851563 8.4553125 2.17578125 9.140625 C2.21847278 13.49516056 1.59996217 16.95600114 0 21 C-0.99 19.68 -1.98 18.36 -3 17 C-2.34 16.34 -1.68 15.68 -1 15 C-0.69400937 12.43083343 -0.48912913 9.95241616 -0.375 7.375 C-0.33632812 6.66859375 -0.29765625 5.9621875 -0.2578125 5.234375 C-0.16352276 3.49001476 -0.08067109 1.74504309 0 0 Z " fill="#8265AC" transform="translate(151,234)"/>
<path d="M0 0 C1.134375 0.66 2.26875 1.32 3.4375 2 C9.27867469 4.91541816 14.36406027 4.73991291 20.5625 3 C21.366875 2.67 22.17125 2.34 23 2 C22.34 3.32 21.68 4.64 21 6 C18.43721301 6.05420701 15.87558517 6.09377007 13.3125 6.125 C12.59126953 6.14175781 11.87003906 6.15851563 11.12695312 6.17578125 C6.95123219 6.21391569 3.7505862 5.8789919 0 4 C0 2.68 0 1.36 0 0 Z " fill="#7D62A9" transform="translate(112,253)"/>
<path d="M0 0 C0.33 0 0.66 0 1 0 C1.02686553 1.97909398 1.04633375 3.95828971 1.0625 5.9375 C1.07410156 7.03964844 1.08570313 8.14179688 1.09765625 9.27734375 C1 12 1 12 0 13 C-0.23075082 14.34747084 -0.41153063 15.70377565 -0.5625 17.0625 C-0.706875 18.361875 -0.85125 19.66125 -1 21 C-1.66 21 -2.32 21 -3 21 C-3.33 21.99 -3.66 22.98 -4 24 C-3.28621973 15.86290495 -1.67226118 7.98268072 0 0 Z " fill="#CC3F7C" transform="translate(324,224)"/>
<path d="M0 0 C1.45212891 -0.03867188 1.45212891 -0.03867188 2.93359375 -0.078125 C5.5625 0.25 5.5625 0.25 7.41015625 1.765625 C7.79042969 2.25546875 8.17070312 2.7453125 8.5625 3.25 C8.2325 4.24 7.9025 5.23 7.5625 6.25 C7.15902344 5.76144531 6.75554687 5.27289063 6.33984375 4.76953125 C4.11274405 2.86548337 3.01555227 2.87413208 0.125 2.9375 C-0.63683594 2.94136719 -1.39867187 2.94523438 -2.18359375 2.94921875 C-4.63279127 3.2760614 -6.30450917 4.03045399 -8.4375 5.25 C-8.0625 3.3125 -8.0625 3.3125 -7.4375 1.25 C-4.85741408 -0.04004296 -2.88008426 0.04589776 0 0 Z " fill="#7C5FAA" transform="translate(182.4375,238.75)"/>
<path d="M0 0 C1.65 0.99 3.3 1.98 5 3 C4.78943471 12.85828397 4.78943471 12.85828397 1.4375 16.125 C0.633125 16.74375 -0.17125 17.3625 -1 18 C-0.690625 17.278125 -0.38125 16.55625 -0.0625 15.8125 C0.94864292 13.13594522 1.7081987 10.84506271 2 8 C1.09166275 5.93330603 1.09166275 5.93330603 0 4 C0 2.68 0 1.36 0 0 Z " fill="#EE5546" transform="translate(326,228)"/>
<path d="M0 0 C2.25 0.5 2.25 0.5 5 2 C6.1884128 3.94779571 7.09150424 5.94011155 8.01953125 8.0234375 C9.25783454 10.51977799 10.89596475 12.19654122 13 14 C7.7547394 12.61154866 5.03597565 9.27421346 2 5 C0.625 2.0625 0.625 2.0625 0 0 Z " fill="#8061AD" transform="translate(97,253)"/>
<path d="M0 0 C0.33 0 0.66 0 1 0 C1.33 3.96 1.66 7.92 2 12 C1.34 12 0.68 12 0 12 C-0.28875 13.134375 -0.5775 14.26875 -0.875 15.4375 C-1.24625 16.613125 -1.6175 17.78875 -2 19 C-2.66 19.33 -3.32 19.66 -4 20 C-4 19.01 -4 18.02 -4 17 C-3.34 17 -2.68 17 -2 17 C-2.020625 15.700625 -2.04125 14.40125 -2.0625 13.0625 C-2.08399454 11.70834367 -2.07148199 10.35243917 -2 9 C-1.67 8.67 -1.34 8.34 -1 8 C-0.76924918 6.65252916 -0.58846937 5.29622435 -0.4375 3.9375 C-0.2209375 1.9884375 -0.2209375 1.9884375 0 0 Z " fill="#D9416A" transform="translate(325,228)"/>
<path d="M0 0 C0.66 0 1.32 0 2 0 C1.39009109 3.55780196 0.4216319 6.6828589 -1 10 C-2.98 10 -4.96 10 -7 10 C-6.57847656 9.44570312 -6.15695312 8.89140625 -5.72265625 8.3203125 C-5.17480469 7.59585938 -4.62695312 6.87140625 -4.0625 6.125 C-3.51722656 5.40570313 -2.97195313 4.68640625 -2.41015625 3.9453125 C-0.96035376 2.05642921 -0.96035376 2.05642921 0 0 Z " fill="#762C8F" transform="translate(321,212)"/>
<path d="M0 0 C0.97729763 3.58342465 1.36506893 7.09286165 1.71875 10.78125 C1.98973686 12.91903524 2.43355851 14.92304786 3 17 C1.68 16.67 0.36 16.34 -1 16 C-1 13.03 -1 10.06 -1 7 C-1.99 6.67 -2.98 6.34 -4 6 C-3.525625 5.566875 -3.05125 5.13375 -2.5625 4.6875 C-0.76313043 2.97690387 -0.76313043 2.97690387 0 0 Z " fill="#7D60A9" transform="translate(109,236)"/>
<path d="M0 0 C1.04929688 -0.02578125 2.09859375 -0.0515625 3.1796875 -0.078125 C6.43056586 0.28404182 7.74850767 1.06867854 10.125 3.25 C7.485 3.58 4.845 3.91 2.125 4.25 C1.795 3.59 1.465 2.93 1.125 2.25 C-1.90434491 1.59227572 -1.90434491 1.59227572 -4.875 1.25 C-5.205 1.91 -5.535 2.57 -5.875 3.25 C-6.535 2.59 -7.195 1.93 -7.875 1.25 C-5.18393093 -0.09553453 -3.00334578 0.04405886 0 0 Z " fill="#8163AE" transform="translate(186.875,227.75)"/>
<path d="M0 0 C0.28875 0.61875 0.5775 1.2375 0.875 1.875 C1.93720042 4.13325765 1.93720042 4.13325765 4 6 C3.34 6 2.68 6 2 6 C2 9.63 2 13.26 2 17 C1.01 17 0.02 17 -1 17 C-1.02684679 14.35409986 -1.04676357 11.70846904 -1.0625 9.0625 C-1.07087891 8.30775391 -1.07925781 7.55300781 -1.08789062 6.77539062 C-1.09652441 4.85005687 -1.05224333 2.92464419 -1 1 C-0.67 0.67 -0.34 0.34 0 0 Z " fill="#7A60A9" transform="translate(139,233)"/>
<path d="M0 0 C7.15380679 0.31794697 11.50704185 1.73990573 16.875 6.75 C17.24625 7.1625 17.6175 7.575 18 8 C17.67 8.66 17.34 9.32 17 10 C16.29875 9.21625 15.5975 8.4325 14.875 7.625 C11.82870835 4.84360328 9.93019194 4.04270398 6 3 C4 2.33333333 2 1.66666667 0 1 C0 0.67 0 0.34 0 0 Z " fill="#8065AA" transform="translate(266,228)"/>
<path d="M0 0 C0.99 0 1.98 0 3 0 C3 2.31 3 4.62 3 7 C2.01 7 1.02 7 0 7 C0.33 6.67 0.66 6.34 1 6 C-0.65 5.67 -2.3 5.34 -4 5 C-2.1875 2.5 -2.1875 2.5 0 0 Z " fill="#FB7A24" transform="translate(348,253)"/>
<path d="M0 0 C0.66 0 1.32 0 2 0 C1.67 1.98 1.34 3.96 1 6 C3.97 6 6.94 6 10 6 C9.67 6.99 9.34 7.98 9 9 C1.125 8.125 1.125 8.125 0 7 C-0.04092937 4.66702567 -0.04241723 2.33294775 0 0 Z " fill="#775BAD" transform="translate(208,233)"/>
<path d="M0 0 C0.66 0.33 1.32 0.66 2 1 C1.88541307 2.43836751 1.75790884 3.87570966 1.625 5.3125 C1.55539062 6.11300781 1.48578125 6.91351563 1.4140625 7.73828125 C1 10 1 10 -1 13 C-1.66 13 -2.32 13 -3 13 C-2.69240822 11.02006459 -2.3787932 9.04106401 -2.0625 7.0625 C-1.88847656 5.96035156 -1.71445312 4.85820312 -1.53515625 3.72265625 C-1 1 -1 1 0 0 Z " fill="#FA5C3B" transform="translate(331,231)"/>
<path d="M0 0 C0.33 0.66 0.66 1.32 1 2 C-1.2830908 7.02279976 -4.44361459 10.87562143 -9 14 C-8.41800054 10.62440315 -7.37247717 9.37247717 -5 7 C-4.67 6.154375 -4.34 5.30875 -4 4.4375 C-3 2 -3 2 0 0 Z " fill="#9E289A" transform="translate(316,226)"/>
<path d="M0 0 C0.66 0.33 1.32 0.66 2 1 C1.84660156 1.66386719 1.69320313 2.32773438 1.53515625 3.01171875 C0.89226979 6.60155922 0.64966009 10.17795419 0.4375 13.8125 C0.39431641 14.50537109 0.35113281 15.19824219 0.30664062 15.91210938 C0.20138547 17.60788686 0.10027137 19.30392052 0 21 C-0.33 21 -0.66 21 -1 21 C-1.22155127 18.06294869 -1.42774197 15.12619637 -1.625 12.1875 C-1.68945312 11.35412109 -1.75390625 10.52074219 -1.8203125 9.66210938 C-1.871875 8.85966797 -1.9234375 8.05722656 -1.9765625 7.23046875 C-2.02893066 6.49207764 -2.08129883 5.75368652 -2.13525391 4.99291992 C-2 3 -2 3 0 0 Z " fill="#9E4383" transform="translate(324,207)"/>
<path d="M0 0 C1.25541557 3.76624671 0.37061958 5.37188934 -1 9 C-1.66 8.34 -2.32 7.68 -3 7 C-3.99 7 -4.98 7 -6 7 C-6.33 6.34 -6.66 5.68 -7 5 C-6.030625 4.360625 -5.06125 3.72125 -4.0625 3.0625 C-1.23963731 1.3034741 -1.23963731 1.3034741 0 0 Z " fill="#A02388" transform="translate(323,228)"/>
<path d="M0 0 C-0.33 1.32 -0.66 2.64 -1 4 C-4.3 4.66 -7.6 5.32 -11 6 C-7.81421719 1.75228958 -5.39391541 0 0 0 Z " fill="#A73FAE" transform="translate(317,223)"/>
<path d="M0 0 C3.80635497 3.20760251 7.54563567 6.40746109 11 10 C6.52329102 9.13909443 4.48852282 8.60125885 1.5625 5 C0 2 0 2 0 0 Z " fill="#EC8E51" transform="translate(330,220)"/>
<path d="M0 0 C0.33 0 0.66 0 1 0 C1.45356243 6.46326465 0.59378942 9.60931587 -3 15 C-3.33 15 -3.66 15 -4 15 C-4.1875 12.6875 -4.1875 12.6875 -4 10 C-3.525625 9.54625 -3.05125 9.0925 -2.5625 8.625 C-0.14743461 6.11333199 -0.31735658 3.36397973 0 0 Z " fill="#DE7332" transform="translate(351,253)"/>
<path d="M0 0 C0.66 0 1.32 0 2 0 C1.67 4.29 1.34 8.58 1 13 C-2 10 -2 10 -2.3125 7.625 C-1.97548803 4.79409943 -1.18142573 2.58436878 0 0 Z " fill="#D1384B" transform="translate(316,259)"/>
<path d="M0 0 C4.59306496 1.4859916 7.43569245 3.85014682 11 7 C10.01 7.495 10.01 7.495 9 8 C8.34 7.67 7.68 7.34 7 7 C7 6.34 7 5.68 7 5 C5.68 5.33 4.36 5.66 3 6 C3 4.68 3 3.36 3 2 C2.01 1.67 1.02 1.34 0 1 C0 0.67 0 0.34 0 0 Z " fill="#8063A9" transform="translate(136,214)"/>
<path d="M0 0 C1.65 0 3.3 0 5 0 C5 0.99 5 1.98 5 3 C7.97 3.495 7.97 3.495 11 4 C11 4.33 11 4.66 11 5 C9.741875 4.87625 8.48375 4.7525 7.1875 4.625 C6.12595703 4.52058594 6.12595703 4.52058594 5.04296875 4.4140625 C3 4 3 4 0 2 C0 1.34 0 0.68 0 0 Z " fill="#471D7D" transform="translate(308,272)"/>
<path d="M0 0 C-0.33 1.32 -0.66 2.64 -1 4 C-1.33 3.01 -1.66 2.02 -2 1 C-2.66 1 -3.32 1 -4 1 C-4.33 1.66 -4.66 2.32 -5 3 C-6.65 3 -8.3 3 -10 3 C-6.86618053 -0.60389239 -4.59270471 -1.53090157 0 0 Z " fill="#9139A2" transform="translate(319,222)"/>
<path d="M0 0 C4.67692308 1.47692308 4.67692308 1.47692308 6.3125 4.125 C6.539375 4.74375 6.76625 5.3625 7 6 C5.35 6 3.7 6 2 6 C1.34 4.02 0.68 2.04 0 0 Z " fill="#8A2968" transform="translate(317,272)"/>
<path d="M0 0 C0.66 0.33 1.32 0.66 2 1 C1.360625 1.886875 0.72125 2.77375 0.0625 3.6875 C-1.80829757 6.69211428 -2.59423966 8.5510371 -3 12 C-3.33 12 -3.66 12 -4 12 C-4.125 5.375 -4.125 5.375 -3 2 C-2.01 1.34 -1.02 0.68 0 0 Z " fill="#91369E" transform="translate(307,225)"/>
<path d="M0 0 C0 1.65 0 3.3 0 5 C-2.97 4.505 -2.97 4.505 -6 4 C-2.25 0 -2.25 0 0 0 Z " fill="#F66C20" transform="translate(347,262)"/>
<path d="M0 0 C0.5625 1.9375 0.5625 1.9375 1 4 C0.67 4.33 0.34 4.66 0 5 C-0.04080783 6.99958364 -0.04254356 9.00045254 0 11 C-0.66 11 -1.32 11 -2 11 C-2 7.7 -2 4.4 -2 1 C-1.34 0.67 -0.68 0.34 0 0 Z " fill="#992579" transform="translate(315,259)"/>
<path d="M0 0 C1.98 0 3.96 0 6 0 C5.625 1.9375 5.625 1.9375 5 4 C4.01 4.495 4.01 4.495 3 5 C3 4.01 3 3.02 3 2 C2.01 2 1.02 2 0 2 C0 1.34 0 0.68 0 0 Z " fill="#AC319F" transform="translate(317,226)"/>
<path d="M0 0 C2.37948772 0.17625835 3.70225849 0.69719773 5.37890625 2.40234375 C6.62115486 3.90649092 7.81376056 5.45129851 9 7 C4.58110387 5.64978174 2.65654657 3.73884332 0 0 Z " fill="#7D679D" transform="translate(101,260)"/>
</svg>
