<svg xmlns="http://www.w3.org/2000/svg" width="400" height="120" viewBox="0 0 400 120">
  <!-- Text part - "Onieon" -->
  <text x="10" y="80" font-family="Arial, sans-serif" font-size="70" font-weight="bold">
    <tspan fill="#8A5CF6">Onie</tspan><tspan fill="#8A5CF6">on</tspan>
  </text>
  
  <!-- Onion icon -->
  <g transform="translate(300, 60) scale(0.8)">
    <!-- Outer onion shape -->
    <path d="M20 5C15 5 10 8 8 13C6 18 8 23 12 26C16 29 20 30 20 30C20 30 24 29 28 26C32 23 34 18 32 13C30 8 25 5 20 5Z" fill="url(#onionGradient)"/>
    <!-- Inner onion shape -->
    <path d="M20 8C16 8 12 10 11 14C10 18 11 21 14 23C17 25 20 26 20 26C20 26 23 25 26 23C29 21 30 18 29 14C28 10 24 8 20 8Z" fill="url(#onionGradient2)"/>
    
    <!-- Gradient definitions -->
    <defs>
      <linearGradient id="onionGradient" x1="0%" y1="0%" x2="100%" y2="0%">
        <stop offset="0%" style="stop-color:#d9d5e0"/>
        <stop offset="50%" style="stop-color:#E91E63"/>
        <stop offset="100%" style="stop-color:#FF9800"/>
      </linearGradient>
      <linearGradient id="onionGradient2" x1="0%" y1="0%" x2="100%" y2="0%">
        <stop offset="0%" style="stop-color:#d9d5e0"/>
        <stop offset="50%" style="stop-color:#F06292"/>
        <stop offset="100%" style="stop-color:#FFB74D"/>
      </linearGradient>
    </defs>
  </g>
</svg>